<?xml version="1.0" standalone="no"?><!DOCTYPE svg PUBLIC "-//W3C//DTD SVG 1.1//EN" "http://www.w3.org/Graphics/SVG/1.1/DTD/svg11.dtd"><svg t="1646236117719" class="icon" viewBox="0 0 1084 1024" version="1.1" xmlns="http://www.w3.org/2000/svg" p-id="2976" xmlns:xlink="http://www.w3.org/1999/xlink" width="211.71875" height="200"><defs><style type="text/css"></style></defs><path d="M1082.902327 461.189804l1.776322 1.406254q-0.875825-0.740134-1.776322-1.406254zM0 463.212837l3.207247-2.541127a30.838915 30.838915 0 0 0-3.207247 2.541127z" p-id="2977"></path><path d="M112.808751 996.861755c-0.283718 1.899677-0.579772 3.787019-0.838819 5.699031a28.445815 28.445815 0 0 0 0.838819-5.699031zM84.375271 1024zM55.978798 993.420132q0.308389-2.134053 0.64145-4.268106a28.371802 28.371802 0 0 0-0.64145 4.268106z" p-id="2978"></path><path d="M1029.464656 986.795933c0.357731 2.232737 0.678456 4.47781 0.999181 6.722884a29.43266 29.43266 0 0 0-0.999181-6.722884zM972.387992 1001.462921c-0.246711-1.763986-0.505758-3.515636-0.777141-5.267287a29.43266 29.43266 0 0 0 0.777141 5.267287z" p-id="2979"></path><path d="M1042.86108 959.620681L869.435359 774.069098a469.244928 469.244928 0 0 0 108.910711-301.296198C978.34607 212.147063 766.174336 0 505.375801 0 244.749964 0 32.602901 212.171734 32.602901 472.7729s212.171734 472.7729 472.7729 472.772901a467.616634 467.616634 0 0 0 195.716089-42.434347 36.315906 36.315906 0 0 0-30.111116-66.081627 398.648485 398.648485 0 0 1-165.604973 35.773141c-220.547583 0-400.042404-179.49482-400.042403-400.042403S284.791211 72.730497 505.375801 72.730497s400.042404 179.49482 400.042404 400.042403a398.710162 398.710162 0 0 1-111.451839 277.056811 36.414591 36.414591 0 0 0 0.97451 51.426975c1.233557 0.97451 2.541127 1.369248 3.70067 2.343757 0.97451 1.369248 1.566617 3.133234 2.738495 4.502482l188.09271 201.19308a36.155544 36.155544 0 0 0 26.59548 11.533755 36.463933 36.463933 0 0 0 26.780514-61.196743z" p-id="2980"></path></svg>