<?xml version="1.0" standalone="no"?><!DOCTYPE svg PUBLIC "-//W3C//DTD SVG 1.1//EN" "http://www.w3.org/Graphics/SVG/1.1/DTD/svg11.dtd"><svg t="1646273326226" class="icon" viewBox="0 0 1024 1024" version="1.1" xmlns="http://www.w3.org/2000/svg" p-id="3056" xmlns:xlink="http://www.w3.org/1999/xlink" width="200" height="200"><defs><style type="text/css"></style></defs><path d="M724.007555 588.723406c-14.128789 0-25.582655-11.453866-25.582655-25.582655 0-68.750827-26.77276-133.385916-75.386968-181.999101-48.613184-48.613184-113.248274-75.385944-181.999101-75.385944-14.128789 0-25.582655-11.453866-25.582655-25.582655s11.453866-25.582655 25.582655-25.582655c82.418105 0 159.900803 32.094976 218.178091 90.372264s90.372264 135.76101 90.372264 218.178091C749.59021 577.268516 738.13532 588.723406 724.007555 588.723406z" p-id="3057"></path><path d="M441.038832 862.986863c-80.09213 0-155.39007-31.18935-212.022904-87.822185s-87.823208-131.931798-87.823208-212.023928c0-65.99711 21.027919-128.602983 60.810994-181.050496 38.486546-50.738591 93.142353-88.572268 153.897066-106.532315 8.937556-2.6432 18.327414 2.462075 20.970614 11.400654 2.642177 8.93858-2.462075 18.327414-11.400654 20.970614-53.902654 15.933901-102.405321 49.516764-136.572492 94.561679-35.293831 46.52871-53.949726 102.080933-53.949726 160.649863 0 71.075779 27.678386 137.897673 77.937047 188.155311s117.079532 77.936023 188.154287 77.936023c58.605769 0 114.184599-18.676361 160.729681-54.009078 45.061288-34.20708 78.636988-82.756819 94.54019-136.706545 2.635013-8.940626 12.015661-14.053064 20.960381-11.417027 8.940626 2.635013 14.052041 12.019755 11.417027 20.960381-17.925255 60.809971-55.749722 115.51899-106.507756 154.049538C569.712423 841.936431 507.075851 862.986863 441.038832 862.986863z" p-id="3058"></path><path d="M441.038832 700.729385c-75.866898 0-137.588635-61.721737-137.588635-137.588635S365.171933 425.552116 441.038832 425.552116c75.866898 0 137.589658 61.721737 137.589658 137.588635S516.90573 700.729385 441.038832 700.729385zM441.038832 476.717426c-47.653323 0-86.423325 38.768979-86.423325 86.423325s38.768979 86.423325 86.423325 86.423325c47.654346 0 86.424348-38.770002 86.424348-86.423325S488.693178 476.717426 441.038832 476.717426z" p-id="3059"></path><path d="M896.970862 593.440847c-16.73515 0-30.300097-13.56597-30.300097-30.300097 0-57.473993-11.249205-113.211435-33.435507-165.66611-21.436218-50.680263-52.130288-96.202039-91.228771-135.301546-39.099507-39.098483-84.621283-69.792553-135.302569-91.228771-52.454676-22.186302-108.192118-33.435507-165.665087-33.435507-16.73515 0-30.300097-13.56597-30.300097-30.300097s13.56597-30.300097 30.300097-30.300097c65.627696 0 129.308041 12.859889 189.272761 38.223556 57.903781 24.491811 109.900016 59.546188 154.544819 104.190991 44.644803 44.644803 79.700203 96.642061 104.190991 154.545842 25.362644 59.96472 38.223556 123.646088 38.223556 189.272761C927.270958 579.874877 913.706011 593.440847 896.970862 593.440847z" p-id="3060"></path></svg>