<?xml version="1.0" standalone="no"?><!DOCTYPE svg PUBLIC "-//W3C//DTD SVG 1.1//EN" "http://www.w3.org/Graphics/SVG/1.1/DTD/svg11.dtd"><svg t="1646321878111" class="icon" viewBox="0 0 1024 1024" version="1.1" xmlns="http://www.w3.org/2000/svg" p-id="7023" xmlns:xlink="http://www.w3.org/1999/xlink" width="200" height="200"><defs><style type="text/css"></style></defs><path d="M676.864 669.0816l39.5264 46.8992C788.2752 655.36 829.44 566.8864 829.44 473.088c0-175.104-142.336-317.44-317.44-317.44S194.56 297.984 194.56 473.088c0 94.4128 41.5744 183.296 114.2784 243.9168l39.3216-47.104c-58.5728-48.7424-92.16-120.6272-92.16-196.8128 0-141.1072 114.8928-256 256-256s256 114.8928 256 256c0 75.776-33.1776 147.0464-91.136 195.9936z" fill="#646464" p-id="7024"></path><path d="M845.0048 140.0832C756.1216 50.9952 637.7472 2.048 512 2.048 386.2528 2.048 267.8784 50.9952 178.9952 140.0832 89.9072 228.9664 40.96 347.3408 40.96 473.088c0 74.9568 16.9984 146.6368 50.7904 212.992 32.1536 63.2832 79.0528 119.3984 135.7824 162.4064l37.0688-48.9472C161.5872 721.5104 102.4 602.3168 102.4 473.088c0-225.8944 183.7056-409.6 409.6-409.6s409.6 183.7056 409.6 409.6c0 128.2048-58.368 246.784-160.3584 325.0176l37.4784 48.7424c56.1152-43.008 102.4-99.1232 134.144-161.9968 33.1776-65.9456 50.176-137.216 50.176-211.7632 0-125.7472-48.9472-244.1216-138.0352-333.0048z" fill="#646464" p-id="7025"></path><path d="M567.296 594.1248c45.8752-21.0944 77.824-67.3792 77.824-121.0368 0-73.3184-59.8016-133.12-133.12-133.12s-133.12 59.8016-133.12 133.12c0 53.6576 31.9488 99.9424 77.824 121.0368L233.6768 945.3568c-10.0352 15.7696-10.6496 35.6352-1.6384 52.0192s26.2144 26.4192 44.8512 26.4192h470.016c18.6368 0 35.84-10.24 44.8512-26.4192s8.3968-36.2496-1.6384-52.0192L567.296 594.1248zM512 401.408c39.5264 0 71.68 32.1536 71.68 71.68s-32.1536 71.68-71.68 71.68-71.68-32.1536-71.68-71.68 32.1536-71.68 71.68-71.68zM295.7312 962.56L512 621.568 728.2688 962.56H295.7312z" fill="#646464" p-id="7026"></path></svg>